<?xml version="1.0" ?>
<svg fill="#21243D" data-name="Adjustable wrench" id="Adjustable_wrench" viewBox="0 0 15.91 53.67" xmlns="http://www.w3.org/2000/svg">
<g data-name="Adjustable wrench" id="Adjustable_wrench-2">
<path d="M115,190.27a1.27,1.27,0,0,0-1.27-1.27h-3.46a1.27,1.27,0,0,0-1.27,1.27v27.46a1.27,1.27,0,0,0,1.27,1.27h3.46a1.27,1.27,0,0,0,1.27-1.27V190.27Zm-3,26.4a2,2,0,1,1,2-2A2,2,0,0,1,112,216.67Z" transform="translate(-104.05 -165.33)"/>
<path d="M105.73,167.56l-1.67,6.69a0.34,0.34,0,0,0,.33.42h5a0.34,0.34,0,0,0,.3-0.49l-3.35-6.69A0.34,0.34,0,0,0,105.73,167.56Z" transform="translate(-104.05 -165.33)"/>
<path d="M112.95,165.33a0.63,0.63,0,0,0-.65.85c0.76,2,2.59,6.88,3.33,8.81a0.76,0.76,0,0,1-.58,1h-10.2a0.51,0.51,0,0,0-.59.67l3.55,9.84a0.71,0.71,0,0,0,.59.49h7.12a0.81,0.81,0,0,0,.59-0.59l3.82-11.31a0.84,0.84,0,0,0,0-.23C120,173.9,119.74,166,112.95,165.33ZM111,183h-2v-4h2v4Zm4,0h-2v-4h2v4Z" transform="translate(-104.05 -165.33)"/>
</g>
</svg>
